Format : MPEG-4
Format profile : Base Media / Version 2
Codec ID : mp42
File size : 366 MiB
Duration : 1h 28mn
Overall bit rate : 576 Kbps
Encoded date : UTC 2010-10-10 19:39:54
Tagged date : UTC 2010-10-10 19:40:35
Writing application : mp4creator 1.6.1d

Video
ID : 1
Format : AVC
Format/Info : Advanced Video Codec
Format profile : Baseline@L1.3
Format settings, CABAC : No
Format settings, ReFrames : 1 frame
Codec ID : avc1
Codec ID/Info : Advanced Video Coding
Duration : 1h 28mn
Bit rate mode : Variable
Bit rate : 512 Kbps
Width : 480 pixels
Height : 272 pixels
Display aspect ratio : 16:9
Original display aspect ratio : 16:9
Frame rate mode : Constant
Frame rate : 24.000 fps
Resolution : 24 bits
Colorimetry : 4:2:0
Scan type : Progressive
Bits/(Pixel*Frame) : 0.163
Stream size : 325 MiB (89%)
Encoded date : UTC 2010-10-10 19:39:54
Tagged date : UTC 2010-10-10 19:40:33

Audio
ID : 2
Format : AAC
Format/Info : Advanced Audio Codec
Format version : Version 4
Format profile : LC
Format settings, SBR : Yes
Format settings, PS : No
Codec ID : 40
Duration : 1h 28mn
Bit rate mode : Variable
Bit rate : 62.4 Kbps
Maximum bit rate : 100 Kbps
Channel(s) : 2 channels
Channel positions : L R
Sampling rate : 48.0 KHz
Resolution : 16 bits
Stream size : 39.6 MiB (11%)
Encoded date : UTC 2010-10-10 19:40:33
Tagged date : UTC 2010-10-10 19:40:35

From legendary director Joe Dante comes a 3D thriller that explores the fears and secrets buried deep within the human mind. Life couldn’t possibly get worse, or so thought 17 year old Dane and his 10 year old brother Lucas, when their single mother Susan uproots them from New York City to the sleepy little town of Bensonville. For Dane the only exciting thing about their new town is the beautiful girl next door, Julie. With Susan spending more and more time at work, Dane and Lucas are left unattended to explore the depths of their eerie new residence. With Dane paying more attention to Julie, he has far less time and patience for his little brother. But then everything changes when they find a sinister black hole under a locked trap door in the basement. As the brothers experiment with the hole they realize that the cold pit goes on forever.
 
http://www.imdb.com/title/tt1085779/


Screen shots
 
http://img823.imageshack.us/img823/9055/theholeh264vicemp4snaps.jpg 
http://img547.imageshack.us/img547/9055/theholeh264vicemp4snaps.jpg 
http://img252.imageshack.us/img252/9055/theholeh264vicemp4snaps.jpg 
http://img340.imageshack.us/img340/9055/theholeh264vicemp4snaps.jpg
 
http://img707.imageshack.us/img707/7384/theholeh264vicemp4thumb.jpg